<?xml version="1.0" standalone="no"?>
<!DOCTYPE svg PUBLIC "-//W3C//DTD SVG 20010904//EN"
 "http://www.w3.org/TR/2001/REC-SVG-20010904/DTD/svg10.dtd">
<svg version="1.0" xmlns="http://www.w3.org/2000/svg"
 width="390.000000pt" height="382.000000pt" viewBox="0 0 390.000000 382.000000"
 preserveAspectRatio="xMidYMid meet">

<g transform="translate(0.000000,382.000000) scale(0.100000,-0.100000)"
fill="#000000" stroke="none">
<path d="M1900 3239 c-167 -20 -373 -100 -509 -196 -197 -140 -338 -331 -415
-563 -46 -140 -60 -244 -53 -399 13 -292 128 -545 343 -750 146 -140 298 -224
503 -278 82 -22 119 -26 251 -27 93 0 179 4 215 12 466 101 804 440 889 892
20 105 20 304 1 407 -65 344 -297 646 -610 798 -185 89 -418 129 -615 104z
m459 -320 c77 -12 114 -30 164 -77 59 -57 79 -123 85 -281 6 -156 -6 -221 -49
-281 l-30 -41 34 -38 c56 -62 72 -124 72 -286 0 -206 -36 -298 -143 -366 -80
-51 -93 -52 -488 -56 -316 -4 -372 -2 -382 10 -9 10 -12 52 -10 138 l3 124 38
18 37 17 -2 412 -3 412 -29 7 c-16 5 -33 14 -37 21 -14 21 -11 252 3 266 15
15 643 17 737 1z m-864 -175 c-45 -37 -65 -47 -65 -32 0 16 59 58 80 58 10 -1
4 -10 -15 -26z m75 7 c0 -14 -135 -111 -139 -100 -2 6 5 17 15 24 11 7 39 29
64 48 47 37 60 43 60 28z m0 -60 c0 -14 -135 -111 -139 -100 -2 6 5 17 15 24
11 7 39 29 64 48 47 37 60 43 60 28z m10 -51 c0 -14 -144 -121 -148 -109 -2 5
9 20 24 32 16 12 46 36 69 54 42 34 55 39 55 23z m30 -44 c0 -11 -153 -115
-161 -110 -11 7 128 114 148 114 7 0 13 -2 13 -4z m44 -15 c5 -8 -126 -115
-138 -112 -16 3 -3 18 60 67 80 61 71 56 78 45z m6 -60 c0 -9 -134 -111 -145
-111 -18 0 4 25 63 69 68 51 82 58 82 42z m0 -60 c0 -9 -134 -111 -145 -111
-18 0 4 25 63 69 68 51 82 58 82 42z m-6 -63 c-2 -7 -30 -31 -61 -53 -76 -54
-83 -58 -83 -47 0 11 128 112 141 112 5 0 6 -6 3 -12z m0 -60 c-2 -7 -30 -31
-61 -53 -76 -54 -83 -58 -83 -46 0 5 28 32 63 60 61 49 91 64 81 39z m1 -58
c-14 -23 -140 -110 -143 -100 -2 6 4 18 14 25 11 7 39 29 64 48 43 34 78 49
65 27z m-9 -69 c-30 -33 -136 -103 -136 -89 1 15 118 106 139 107 11 1 10 -3
-3 -18z m14 -40 c0 -10 -58 -59 -117 -100 -63 -43 -34 3 35 56 69 53 82 60 82
44z m0 -60 c0 -10 -58 -59 -117 -100 -23 -15 -33 -18 -33 -9 1 12 127 117 143
118 4 0 7 -4 7 -9z m0 -60 c0 -5 -34 -34 -76 -66 -42 -31 -74 -50 -72 -42 3
15 126 116 141 117 4 0 7 -4 7 -9z m0 -60 c0 -5 -34 -34 -76 -66 -42 -31 -74
-50 -72 -42 3 15 126 116 141 117 4 0 7 -4 7 -9z m0 -60 c0 -5 -34 -34 -75
-65 -45 -34 -75 -51 -75 -42 0 8 30 37 68 65 68 51 82 58 82 42z m0 -60 c0 -5
-34 -34 -75 -65 -44 -33 -75 -51 -75 -42 0 7 30 37 66 65 66 50 84 60 84 42z
m-6 -63 c-4 -12 -115 -98 -136 -106 -4 -2 -8 1 -8 7 0 11 127 111 141 111 5 0
6 -6 3 -12z m-85 -132 c-2 -1 -32 -24 -67 -50 -35 -27 -66 -45 -69 -42 -8 8
27 46 42 46 7 0 29 17 50 37 25 24 40 33 43 25 2 -7 2 -14 1 -16z m1 -46 c0
-15 -134 -112 -138 -100 -2 6 -2 13 -1 14 15 12 134 96 136 96 2 0 3 -4 3 -10z
m0 -59 c0 -4 -26 -28 -57 -53 -77 -59 -86 -64 -81 -45 3 15 115 106 131 107 4
0 7 -4 7 -9z m0 -60 c0 -5 -16 -20 -35 -35 -19 -14 -51 -38 -71 -53 -28 -21
-35 -23 -33 -10 2 9 31 37 64 61 62 46 75 52 75 37z m830 -35 c0 -2 -38 -31
-84 -65 -102 -74 -148 -83 -51 -10 81 62 135 92 135 75z m-810 -13 c-1 -9
-123 -101 -147 -110 -32 -12 -7 16 57 66 61 47 91 61 90 44z m70 -8 c0 -11
-149 -115 -165 -115 -11 0 13 24 61 60 70 52 104 71 104 55z m80 0 c0 -11
-150 -115 -166 -115 -19 0 134 119 154 120 6 0 12 -2 12 -5z m80 1 c0 -11
-154 -117 -167 -114 -9 2 16 25 63 60 68 49 104 68 104 54z m80 0 c0 -11 -153
-117 -166 -114 -17 3 132 118 153 118 7 0 13 -2 13 -4z m80 0 c0 -11 -153
-117 -166 -114 -17 3 132 118 153 118 7 0 13 -2 13 -4z m70 -4 c0 -14 -141
-113 -158 -110 -10 2 13 24 64 61 77 56 94 65 94 49z m80 1 c-1 -12 -130 -105
-154 -111 -27 -7 -23 -2 64 63 71 53 90 63 90 48z m80 0 c-1 -5 -20 -22 -43
-39 -23 -16 -56 -41 -74 -53 -17 -13 -37 -21 -44 -19 -7 2 23 30 66 61 74 55
95 66 95 50z m80 3 c0 -10 -152 -116 -166 -116 -19 0 133 118 154 119 6 1 12
-1 12 -3z"/>
<path d="M1980 2579 c0 -31 0 -31 26 -15 41 28 51 12 11 -18 -20 -16 -37 -35
-37 -43 0 -10 22 1 65 32 36 25 71 45 78 42 6 -2 -23 -29 -66 -61 -76 -56 -77
-57 -77 -101 l0 -45 82 0 82 0 60 47 c34 25 67 51 74 56 8 6 12 5 12 -5 0 -8
-26 -33 -57 -56 -46 -34 -53 -42 -34 -42 12 0 39 12 59 28 27 20 34 23 29 10
-3 -10 -2 -18 3 -18 26 0 44 91 31 151 -15 66 -24 69 -193 69 l-148 0 0 -31z
m230 -4 c0 -12 -153 -116 -167 -113 -9 2 16 26 63 60 70 50 104 68 104 53z
m48 -17 c-7 -19 -146 -119 -152 -110 -5 8 131 121 147 122 5 0 7 -6 5 -12z
m30 -37 c-7 -19 -148 -122 -148 -108 0 8 30 38 68 66 65 49 87 61 80 42z"/>
<path d="M1980 2045 c0 -25 14 -33 25 -15 3 6 16 10 28 10 18 0 16 -4 -16 -27
-20 -14 -37 -32 -37 -40 0 -19 6 -17 65 28 30 22 60 39 66 37 7 -2 -20 -28
-60 -57 l-71 -53 0 -59 0 -59 102 0 c110 0 92 -6 203 76 25 19 35 22 35 12 0
-8 -24 -31 -52 -51 -46 -32 -50 -37 -28 -37 14 1 34 7 44 15 10 8 22 12 27 10
31 -20 53 118 29 181 -19 50 -33 53 -202 54 l-158 0 0 -25z m220 -9 c0 -11
-153 -117 -166 -114 -18 4 124 116 149 117 9 1 17 -1 17 -3z m60 -11 c0 -7
-145 -115 -154 -115 -17 0 3 22 64 69 58 44 90 61 90 46z m40 -25 c0 -10 -134
-114 -144 -111 -16 3 -3 18 60 67 71 54 84 61 84 44z m13 -60 c-26 -22 -132
-100 -137 -100 -3 0 -6 6 -6 13 1 16 131 108 143 100 5 -3 5 -9 0 -13z"/>
<path d="M520 605 l0 -235 98 0 c98 0 98 0 130 33 30 31 32 38 32 102 0 50 -5
73 -17 87 -15 17 -15 19 0 36 12 13 17 37 17 83 0 60 -2 67 -33 97 -32 32 -34
32 -130 32 l-97 0 0 -235z m168 112 c4 -47 -11 -67 -49 -67 -28 0 -29 1 -29
56 l0 55 38 -3 c35 -3 37 -5 40 -41z m0 -209 l3 -48 -40 0 -41 0 0 51 0 50 38
-3 c37 -3 37 -3 40 -50z"/>
<path d="M890 836 c0 -2 23 -66 50 -141 47 -128 50 -143 50 -231 l0 -94 45 0
45 0 0 92 c0 84 4 101 50 228 28 75 50 140 50 143 0 4 -20 7 -44 7 l-44 0 -21
-62 c-33 -98 -35 -98 -66 -14 l-28 76 -43 0 c-24 0 -44 -2 -44 -4z"/>
<path d="M1290 800 l0 -40 45 0 45 0 0 -195 0 -195 45 0 45 0 0 195 0 195 45
0 45 0 0 40 0 40 -135 0 -135 0 0 -40z"/>
<path d="M1680 605 l0 -235 116 0 115 0 -3 43 -3 42 -72 3 -73 3 0 49 0 49 53
3 52 3 3 43 3 42 -55 0 -56 0 0 55 0 55 75 0 75 0 0 40 0 40 -115 0 -115 0 0
-235z"/>
<path d="M2057 812 l-27 -28 0 -175 0 -175 33 -32 c31 -30 38 -32 103 -32 66
0 72 2 102 33 26 26 32 41 32 75 l0 42 -39 0 c-36 0 -40 -3 -43 -27 -3 -26 -6
-28 -53 -28 l-50 0 0 145 0 145 50 0 c49 0 50 -1 53 -32 3 -31 6 -33 43 -33
l39 0 0 48 c0 40 -5 53 -28 75 -26 25 -35 27 -108 27 -75 0 -82 -2 -107 -28z"/>
<path d="M2420 605 l0 -235 111 0 110 0 -3 43 -3 42 -62 3 -63 3 0 189 0 190
-45 0 -45 0 0 -235z"/>
<path d="M2760 605 l0 -235 40 0 40 0 0 235 0 235 -40 0 -40 0 0 -235z"/>
<path d="M2960 605 l0 -235 45 0 45 0 0 94 0 95 53 3 52 3 3 43 3 42 -55 0
-56 0 0 55 0 55 70 0 70 0 0 40 0 40 -115 0 -115 0 0 -235z"/>
<path d="M3310 605 l0 -235 45 0 45 0 0 94 0 95 53 3 52 3 3 43 3 42 -55 0
-56 0 0 55 0 55 70 0 70 0 0 40 0 40 -115 0 -115 0 0 -235z"/>
</g>
</svg>
