<svg id="evLX7utjYpI1" xmlns="http://www.w3.org/2000/svg" xmlns:xlink="http://www.w3.org/1999/xlink" viewBox="0 0 390 382" shape-rendering="geometricPrecision" text-rendering="geometricPrecision"><g transform="matrix(.1 0 0-.1 0 382)"><path d="M1900,3239c-167-20-373-100-509-196-197-140-338-331-415-563-46-140-60-244-53-399c13-292,128-545,343-750c146-140,298-224,503-278c82-22,119-26,251-27c93,0,179,4,215,12c466,101,804,440,889,892c20,105,20,304,1,407-65,344-297,646-610,798-185,89-418,129-615,104Zm459-320c77-12,114-30,164-77c59-57,79-123,85-281c6-156-6-221-49-281l-30-41l34-38c56-62,72-124,72-286c0-206-36-298-143-366-80-51-93-52-488-56-316-4-372-2-382,10-9,10-12,52-10,138l3,124l38,18l37,17-2,412-3,412-29,7c-16,5-33,14-37,21-14,21-11,252,3,266c15,15,643,17,737,1Zm-864-175c-45-37-65-47-65-32c0,16,59,58,80,58c10-1,4-10-15-26Zm75,7c0-14-135-111-139-100-2,6,5,17,15,24c11,7,39,29,64,48c47,37,60,43,60,28Zm0-60c0-14-135-111-139-100-2,6,5,17,15,24c11,7,39,29,64,48c47,37,60,43,60,28Zm10-51c0-14-144-121-148-109-2,5,9,20,24,32c16,12,46,36,69,54c42,34,55,39,55,23Zm30-44c0-11-153-115-161-110-11,7,128,114,148,114c7,0,13-2,13-4Zm44-15c5-8-126-115-138-112-16,3-3,18,60,67c80,61,71,56,78,45Zm6-60c0-9-134-111-145-111-18,0,4,25,63,69c68,51,82,58,82,42Zm0-60c0-9-134-111-145-111-18,0,4,25,63,69c68,51,82,58,82,42Zm-6-63c-2-7-30-31-61-53-76-54-83-58-83-47s128,112,141,112c5,0,6-6,3-12Zm0-60c-2-7-30-31-61-53-76-54-83-58-83-46c0,5,28,32,63,60c61,49,91,64,81,39Zm1-58c-14-23-140-110-143-100-2,6,4,18,14,25c11,7,39,29,64,48c43,34,78,49,65,27Zm-9-69c-30-33-136-103-136-89c1,15,118,106,139,107c11,1,10-3-3-18Zm14-40c0-10-58-59-117-100-63-43-34,3,35,56s82,60,82,44Zm0-60c0-10-58-59-117-100-23-15-33-18-33-9c1,12,127,117,143,118c4,0,7-4,7-9Zm0-60c0-5-34-34-76-66-42-31-74-50-72-42c3,15,126,116,141,117c4,0,7-4,7-9Zm0-60c0-5-34-34-76-66-42-31-74-50-72-42c3,15,126,116,141,117c4,0,7-4,7-9Zm0-60c0-5-34-34-75-65-45-34-75-51-75-42c0,8,30,37,68,65c68,51,82,58,82,42Zm0-60c0-5-34-34-75-65-44-33-75-51-75-42c0,7,30,37,66,65c66,50,84,60,84,42Zm-6-63c-4-12-115-98-136-106-4-2-8,7-8,7s127,111,141,111c5,0,6-6,3-12Zm-85-132c-2-1-32-24-67-50-35-27-66-45-69-42-8,8,27,46,42,46c7,0,29,17,50,37c25,24,40,33,43,25c2-7,2-14,1-16Zm1-46c0-15-134-112-138-100-2,6-2,13-1,14c15,12,134,96,136,96s3-4,3-10Zm0-59c0-4-26-28-57-53-77-59-86-64-81-45c3,15,115,106,131,107c4,0,7-4,7-9Zm0-60c0-5-16-20-35-35-19-14-51-38-71-53-28-21-35-23-33-10c2,9,31,37,64,61c62,46,75,52,75,37Zm830-35c0-2-38-31-84-65-102-74-148-83-51-10c81,62,135,92,135,75Zm-810-13c-1-9-123-101-147-110-32-12-7,16,57,66c61,47,91,61,90,44Zm70-8c0-11-149-115-165-115-11,0,13,24,61,60c70,52,104,71,104,55Zm80,0c0-11-150-115-166-115-19,0,134,119,154,120c6,0,12-2,12-5Zm80,1c0-11-154-117-167-114-9,2,16,25,63,60c68,49,104,68,104,54Zm80,0c0-11-153-117-166-114-17,3,132,118,153,118c7,0,13-2,13-4Zm80,0c0-11-153-117-166-114-17,3,132,118,153,118c7,0,13-2,13-4Zm70-4c0-14-141-113-158-110-10,2,13,24,64,61c77,56,94,65,94,49Zm80,1c-1-12-130-105-154-111-27-7-23-2,64,63c71,53,90,63,90,48Zm80,0c-1-5-20-22-43-39-23-16-56-41-74-53-17-13-37-21-44-19s23,30,66,61c74,55,95,66,95,50Zm80,3c0-10-152-116-166-116-19,0,133,118,154,119c6,1,12-1,12-3Z" fill="#25252b"/><path d="M1980,2579c0-31,0-31,26-15c41,28,51,12,11-18-20-16-37-35-37-43c0-10,22,1,65,32c36,25,71,45,78,42c6-2-23-29-66-61-76-56-77-57-77-101v-45h82h82l60,47c34,25,67,51,74,56c8,6,12,5,12-5c0-8-26-33-57-56-46-34-53-42-34-42c12,0,39,12,59,28c27,20,34,23,29,10-3-10-2-18,3-18c26,0,44,91,31,151-15,66-24,69-193,69h-148v-31Zm230-4c0-12-153-116-167-113-9,2,16,26,63,60c70,50,104,68,104,53Zm48-17c-7-19-152-110-152-110s131,121,147,122c5,0,7-6,5-12Zm30-37c-7-19-148-122-148-108c0,8,30,38,68,66c65,49,87,61,80,42Z" fill="#25252b"/><path d="M1980,2045c0-25,14-33,25-15c3,6,16,10,28,10c18,0,16-4-16-27-20-14-37-32-37-40c0-19,6-17,65,28c30,22,60,39,66,37c7-2-20-28-60-57l-71-53v-59-59h102c110,0,92-6,203,76c25,19,35,22,35,12c0-8-24-31-52-51-46-32-50-37-28-37c14,1,34,7,44,15s22,12,27,10c31-20,53,118,29,181-19,50-33,53-202,54h-158v-25Zm220-9c0-11-153-117-166-114-18,4,124,116,149,117c9,1,17-1,17-3Zm60-11c0-7-145-115-154-115-17,0,3,22,64,69c58,44,90,61,90,46Zm40-25c0-10-134-114-144-111-16,3-3,18,60,67c71,54,84,61,84,44Zm13-60c-26-22-132-100-137-100-3,0-6,6-6,13c1,16,131,108,143,100c5-3,5-9,0-13Z" fill="#25252b"/><path d="M520,605v-235h98c98,0,98,0,130,33c30,31,32,38,32,102c0,50-5,73-17,87-15,17-15,19,0,36c12,13,17,37,17,83c0,60-2,67-33,97-32,32-34,32-130,32h-97v-235ZM688,717c4-47-11-67-49-67-28,0-29,1-29,56v55l38-3c35-3,37-5,40-41Zm0-209l3-48h-40-41v51v50l38-3c37-3,37-3,40-50Z" fill="#fff"/><path d="M890,836c0-2,23-66,50-141c47-128,50-143,50-231v-94h45h45v92c0,84,4,101,50,228c28,75,50,140,50,143c0,4-20,7-44,7h-44l-21-62c-33-98-35-98-66-14l-28,76h-43c-24,0-44-2-44-4Z" fill="#fff"/><path d="M1290,800v-40h45h45v-195-195h45h45v195v195h45h45v40v40h-135-135v-40Z" fill="#fff"/><path d="M1680,605v-235h116h115l-3,43-3,42-72,3-73,3v49v49l53,3l52,3l3,43l3,42h-55-56v55v55h75h75v40v40h-115-115v-235Z" fill="#fff"/><path d="M2057,812l-27-28v-175-175l33-32c31-30,38-32,103-32c66,0,72,2,102,33c26,26,32,41,32,75v42h-39c-36,0-40-3-43-27-3-26-6-28-53-28h-50v145v145h50c49,0,50-1,53-32s6-33,43-33h39v48c0,40-5,53-28,75-26,25-35,27-108,27-75,0-82-2-107-28Z" transform="translate(0-8.84572)" fill="#fff"/><path d="M2420,605v-235h111h110l-3,43-3,42-62,3-63,3v189v190h-45-45v-235Z" fill="#fff"/><path d="M2760,605v-235h40h40v235v235h-40-40v-235Z" fill="#fff"/><path d="M2960,605v-235h45h45v94v95l53,3l52,3l3,43l3,42h-55-56v55v55h70h70v40v40h-115-115v-235Z" transform="translate(0-10)" fill="#fff"/><path d="M3310,605v-235h45h45v94v95l53,3l52,3l3,43l3,42h-55-56v55v55h70h70v40v40h-115-115v-235Z" fill="#fff"/></g></svg>
