<?xml version="1.0" encoding="utf-8"?>
<!-- Generator: Adobe Illustrator 26.0.1, SVG Export Plug-In . SVG Version: 6.00 Build 0)  -->
<svg version="1.1" id="evLX7utjYpI1" shape-rendering="geometricPrecision" text-rendering="geometricPrecision"
	 xmlns="http://www.w3.org/2000/svg" xmlns:xlink="http://www.w3.org/1999/xlink" x="0px" y="0px" viewBox="0 0 390 382"
	 style="enable-background:new 0 0 390 382;" xml:space="preserve">
<style type="text/css">
	.st0{fill:#FFFFFF;}
	.st1{fill:#25252B;}
</style>
<circle class="st0" cx="203.1" cy="168.9" r="100.8"/>
<g transform="matrix(.1 0 0-.1 0 382)">
	<path class="st1" d="M1900,3239c-167-20-373-100-509-196c-197-140-338-331-415-563c-46-140-60-244-53-399c13-292,128-545,343-750
		c146-140,298-224,503-278c82-22,119-26,251-27c93,0,179,4,215,12c466,101,804,440,889,892c20,105,20,304,1,407
		c-65,344-297,646-610,798C2330,3224,2097,3264,1900,3239z M2359,2919c77-12,114-30,164-77c59-57,79-123,85-281c6-156-6-221-49-281
		l-30-41l34-38c56-62,72-124,72-286c0-206-36-298-143-366c-80-51-93-52-488-56c-316-4-372-2-382,10c-9,10-12,52-10,138l3,124l38,18
		l37,17l-2,412l-3,412l-29,7c-16,5-33,14-37,21c-14,21-11,252,3,266C1637,2933,2265,2935,2359,2919z M1495,2744c-45-37-65-47-65-32
		c0,16,59,58,80,58C1520,2769,1514,2760,1495,2744z M1570,2751c0-14-135-111-139-100c-2,6,5,17,15,24c11,7,39,29,64,48
		C1557,2760,1570,2766,1570,2751z M1570,2691c0-14-135-111-139-100c-2,6,5,17,15,24c11,7,39,29,64,48C1557,2700,1570,2706,1570,2691
		z M1580,2640c0-14-144-121-148-109c-2,5,9,20,24,32c16,12,46,36,69,54C1567,2651,1580,2656,1580,2640z M1610,2596
		c0-11-153-115-161-110c-11,7,128,114,148,114C1604,2600,1610,2598,1610,2596z M1654,2581c5-8-126-115-138-112c-16,3-3,18,60,67
		C1656,2597,1647,2592,1654,2581z M1660,2521c0-9-134-111-145-111c-18,0,4,25,63,69C1646,2530,1660,2537,1660,2521z M1660,2461
		c0-9-134-111-145-111c-18,0,4,25,63,69C1646,2470,1660,2477,1660,2461z M1654,2398c-2-7-30-31-61-53c-76-54-83-58-83-47
		s128,112,141,112C1656,2410,1657,2404,1654,2398z M1654,2338c-2-7-30-31-61-53c-76-54-83-58-83-46c0,5,28,32,63,60
		C1634,2348,1664,2363,1654,2338z M1655,2280c-14-23-140-110-143-100c-2,6,4,18,14,25c11,7,39,29,64,48
		C1633,2287,1668,2302,1655,2280z M1646,2211c-30-33-136-103-136-89c1,15,118,106,139,107C1660,2230,1659,2226,1646,2211z
		 M1660,2171c0-10-58-59-117-100c-63-43-34,3,35,56S1660,2187,1660,2171z M1660,2111c0-10-58-59-117-100c-23-15-33-18-33-9
		c1,12,127,117,143,118C1657,2120,1660,2116,1660,2111z M1660,2051c0-5-34-34-76-66c-42-31-74-50-72-42c3,15,126,116,141,117
		C1657,2060,1660,2056,1660,2051z M1660,1991c0-5-34-34-76-66c-42-31-74-50-72-42c3,15,126,116,141,117
		C1657,2000,1660,1996,1660,1991z M1660,1931c0-5-34-34-75-65c-45-34-75-51-75-42c0,8,30,37,68,65C1646,1940,1660,1947,1660,1931z
		 M1660,1871c0-5-34-34-75-65c-44-33-75-51-75-42c0,7,30,37,66,65C1642,1879,1660,1889,1660,1871z M1654,1808c-4-12-115-98-136-106
		c-4-2-8,7-8,7s127,111,141,111C1656,1820,1657,1814,1654,1808z M1569,1676c-2-1-32-24-67-50c-35-27-66-45-69-42c-8,8,27,46,42,46
		c7,0,29,17,50,37c25,24,40,33,43,25C1570,1685,1570,1678,1569,1676z M1570,1630c0-15-134-112-138-100c-2,6-2,13-1,14
		c15,12,134,96,136,96S1570,1636,1570,1630z M1570,1571c0-4-26-28-57-53c-77-59-86-64-81-45c3,15,115,106,131,107
		C1567,1580,1570,1576,1570,1571z M1570,1511c0-5-16-20-35-35c-19-14-51-38-71-53c-28-21-35-23-33-10c2,9,31,37,64,61
		C1557,1520,1570,1526,1570,1511z M2400,1476c0-2-38-31-84-65c-102-74-148-83-51-10C2346,1463,2400,1493,2400,1476z M1590,1463
		c-1-9-123-101-147-110c-32-12-7,16,57,66C1561,1466,1591,1480,1590,1463z M1660,1455c0-11-149-115-165-115c-11,0,13,24,61,60
		C1626,1452,1660,1471,1660,1455z M1740,1455c0-11-150-115-166-115c-19,0,134,119,154,120C1734,1460,1740,1458,1740,1455z
		 M1820,1456c0-11-154-117-167-114c-9,2,16,25,63,60C1784,1451,1820,1470,1820,1456z M1900,1456c0-11-153-117-166-114
		c-17,3,132,118,153,118C1894,1460,1900,1458,1900,1456z M1980,1456c0-11-153-117-166-114c-17,3,132,118,153,118
		C1974,1460,1980,1458,1980,1456z M2050,1452c0-14-141-113-158-110c-10,2,13,24,64,61C2033,1459,2050,1468,2050,1452z M2130,1453
		c-1-12-130-105-154-111c-27-7-23-2,64,63C2111,1458,2130,1468,2130,1453z M2210,1453c-1-5-20-22-43-39c-23-16-56-41-74-53
		c-17-13-37-21-44-19s23,30,66,61C2189,1458,2210,1469,2210,1453z M2290,1456c0-10-152-116-166-116c-19,0,133,118,154,119
		C2284,1460,2290,1458,2290,1456z"/>
	<path class="st1" d="M1980,2579c0-31,0-31,26-15c41,28,51,12,11-18c-20-16-37-35-37-43c0-10,22,1,65,32c36,25,71,45,78,42
		c6-2-23-29-66-61c-76-56-77-57-77-101v-45h82h82l60,47c34,25,67,51,74,56c8,6,12,5,12-5c0-8-26-33-57-56c-46-34-53-42-34-42
		c12,0,39,12,59,28c27,20,34,23,29,10c-3-10-2-18,3-18c26,0,44,91,31,151c-15,66-24,69-193,69h-148V2579z M2210,2575
		c0-12-153-116-167-113c-9,2,16,26,63,60C2176,2572,2210,2590,2210,2575z M2258,2558c-7-19-152-110-152-110s131,121,147,122
		C2258,2570,2260,2564,2258,2558z M2288,2521c-7-19-148-122-148-108c0,8,30,38,68,66C2273,2528,2295,2540,2288,2521z"/>
	<path class="st1" d="M1980,2045c0-25,14-33,25-15c3,6,16,10,28,10c18,0,16-4-16-27c-20-14-37-32-37-40c0-19,6-17,65,28
		c30,22,60,39,66,37c7-2-20-28-60-57l-71-53v-59v-59h102c110,0,92-6,203,76c25,19,35,22,35,12c0-8-24-31-52-51c-46-32-50-37-28-37
		c14,1,34,7,44,15s22,12,27,10c31-20,53,118,29,181c-19,50-33,53-202,54h-158V2045z M2200,2036c0-11-153-117-166-114
		c-18,4,124,116,149,117C2192,2040,2200,2038,2200,2036z M2260,2025c0-7-145-115-154-115c-17,0,3,22,64,69
		C2228,2023,2260,2040,2260,2025z M2300,2000c0-10-134-114-144-111c-16,3-3,18,60,67C2287,2010,2300,2017,2300,2000z M2313,1940
		c-26-22-132-100-137-100c-3,0-6,6-6,13c1,16,131,108,143,100C2318,1950,2318,1944,2313,1940z"/>
	<path class="st0" d="M520,605V370h98c98,0,98,0,130,33c30,31,32,38,32,102c0,50-5,73-17,87c-15,17-15,19,0,36c12,13,17,37,17,83
		c0,60-2,67-33,97c-32,32-34,32-130,32h-97V605z M688,717c4-47-11-67-49-67c-28,0-29,1-29,56v55l38-3C683,755,685,753,688,717z
		 M688,508l3-48h-40h-41v51v50l38-3C685,555,685,555,688,508z"/>
	<path class="st0" d="M890,836c0-2,23-66,50-141c47-128,50-143,50-231v-94h45h45v92c0,84,4,101,50,228c28,75,50,140,50,143
		c0,4-20,7-44,7h-44l-21-62c-33-98-35-98-66-14l-28,76h-43C910,840,890,838,890,836z"/>
	<path class="st0" d="M1290,800v-40h45h45V565V370h45h45v195v195h45h45v40v40h-135h-135V800z"/>
	<path class="st0" d="M1680,605V370h116h115l-3,43l-3,42l-72,3l-73,3v49v49l53,3l52,3l3,43l3,42h-55h-56v55v55h75h75v40v40h-115
		h-115V605z"/>
	<path class="st0" d="M2057,803.2l-27-28v-175v-175l33-32c31-30,38-32,103-32c66,0,72,2,102,33c26,26,32,41,32,75v42h-39
		c-36,0-40-3-43-27c-3-26-6-28-53-28h-50v145v145h50c49,0,50-1,53-32s6-33,43-33h39v48c0,40-5,53-28,75c-26,25-35,27-108,27
		C2089,831.2,2082,829.2,2057,803.2z"/>
	<path class="st0" d="M2420,605V370h111h110l-3,43l-3,42l-62,3l-63,3v189v190h-45h-45V605z"/>
	<path class="st0" d="M2760,605V370h40h40v235v235h-40h-40V605z"/>
	<path class="st0" d="M2960,595V360h45h45v94v95l53,3l52,3l3,43l3,42h-55h-56v55v55h70h70v40v40h-115h-115V595z"/>
	<path class="st0" d="M3310,605V370h45h45v94v95l53,3l52,3l3,43l3,42h-55h-56v55v55h70h70v40v40h-115h-115V605z"/>
</g>
</svg>
